# This file uses meters as units for non-parametric coordinates.

g default
v -95.000000 95.000000 99.121376
v 95.000000 95.000000 99.121376
v -95.000000 -95.000000 99.121376
v 95.000000 -95.000000 99.121376
v 100.585152 -14.875452 102.787582
v 100.585152 -14.875452 117.389694
v 100.585152 14.875452 102.787582
v 100.585152 14.875452 117.389694
v 95.000000 -18.240816 99.422218
v 98.365395 -14.875452 102.787582
v 95.000000 -18.240816 120.755058
v 98.365395 -14.875452 117.389694
v 95.000000 18.240816 99.422218
v 98.365395 14.875452 102.787582
v 95.000000 18.240816 120.755058
v 98.365395 14.875452 117.389694
v -84.211082 -84.211082 149.121368
v -95.000000 -95.000000 138.332443
v 84.211082 -84.211082 149.121368
v 95.000000 -95.000000 138.332443
v -84.211082 84.211082 149.121368
v -95.000000 95.000000 138.332443
v 84.211082 84.211082 149.121368
v 95.000000 95.000000 138.332443
v -100.000000 -100.000000 100.000000
v 100.000000 -100.000000 100.000000
v -100.000000 100.000000 100.000000
v 100.000000 100.000000 100.000000
v -100.000000 100.000000 0.000000
v 100.000000 100.000000 0.000000
v -100.000000 -100.000000 0.000000
v 100.000000 -100.000000 0.000000
v -90.185226 -90.185226 100.000000
v 90.185226 -90.185226 100.000000
v 90.185226 90.185226 100.000000
v -90.185226 90.185226 100.000000
v -90.185226 -90.185226 57.615425
v 90.185226 -90.185226 57.615425
v 90.185226 90.185226 57.615425
v -90.185226 90.185226 57.615425
vt 0.625000 0.500000
vt 0.375000 0.750000
vt 0.875000 0.000000
vt 0.875000 0.092348
vt 0.875000 0.000000
vt 0.625000 0.000000
vt 0.875000 0.250000
vt 0.875000 0.000000
vt 0.625000 0.250000
vt 0.875000 0.250000
vt 0.625000 0.000000
vt 0.625000 0.250000
vt 0.321055 0.000000
vt 0.389196 0.014196
vt 0.375000 0.303945
vt 0.625000 0.000000
vt 0.389196 0.235804
vt 0.610804 0.014196
vt 0.610804 0.235804
vt 0.625000 0.303945
vt 0.375000 0.500000
vt 0.625000 0.750000
vt 0.625000 0.946055
vt 0.375000 0.946055
vt 0.125000 0.000000
vt 0.321055 0.250000
vt 0.125000 0.250000
vt 0.625000 0.043128
vt 0.875000 0.250000
vt 0.678945 0.250000
vt 0.875000 0.140350
vt 0.678945 0.000000
vt 0.625000 0.243247
vt 0.375000 0.000000
vt 0.625000 0.000000
vt 0.625000 0.250000
vt 0.375000 0.250000
vt 0.375000 0.250000
vt 0.625000 0.250000
vt 0.625000 0.500000
vt 0.375000 0.500000
vt 0.625000 0.750000
vt 0.375000 0.750000
vt 0.625000 1.000000
vt 0.375000 1.000000
vt 0.625000 0.000000
vt 0.875000 0.000000
vt 0.875000 0.250000
vt 0.125000 0.000000
vt 0.375000 0.000000
vt 0.125000 0.250000
vt 0.625000 0.000000
vt 0.375000 0.000000
vt 0.625000 0.250000
vt 0.375000 0.250000
vn 0.000000 0.000000 -1.000000
vn 0.000000 0.000000 -1.000000
vn 0.000000 0.000000 -1.000000
vn 0.000000 0.000000 -1.000000
vn 1.000000 0.000000 0.000000
vn 1.000000 0.000000 0.000000
vn 1.000000 0.000000 0.000000
vn 1.000000 0.000000 0.000000
vn 0.707103 -0.707110 0.000000
vn 0.707103 -0.707110 0.000000
vn 0.707103 -0.707110 0.000000
vn 0.707103 -0.707110 0.000000
vn 0.707104 0.000000 -0.707109
vn 0.707104 0.000000 -0.707109
vn 0.707104 0.000000 -0.707109
vn 0.707104 0.000000 -0.707109
vn 0.707105 0.000000 0.707109
vn 0.707105 0.000000 0.707109
vn 0.707105 0.000000 0.707109
vn 0.707105 0.000000 0.707109
vn 0.707103 0.707110 0.000000
vn 0.707103 0.707110 0.000000
vn 0.707103 0.707110 0.000000
vn 0.707103 0.707110 0.000000
vn 1.000000 -0.000000 0.000000
vn 1.000000 0.000000 0.000000
vn 1.000000 0.000000 0.000000
vn 1.000000 -0.000000 0.000000
vn 0.000000 -1.000000 0.000000
vn 0.000000 -1.000000 0.000000
vn 0.000000 -1.000000 0.000000
vn 0.000000 -1.000000 0.000000
vn 0.000000 0.000000 -1.000000
vn 0.000000 0.000000 -1.000000
vn 0.000000 0.000000 -1.000000
vn 0.000000 0.000000 -1.000000
vn 0.000000 1.000000 0.000000
vn 0.000000 1.000000 0.000000
vn 0.000000 1.000000 0.000000
vn 0.000000 1.000000 0.000000
vn 0.000000 0.000000 1.000000
vn 0.000000 0.000000 1.000000
vn 0.000000 0.000000 1.000000
vn 0.000000 0.000000 1.000000
vn 0.000000 -0.707107 0.707107
vn 0.000000 -0.707107 0.707107
vn 0.000000 -0.707107 0.707107
vn 0.000000 -0.707107 0.707107
vn -0.707107 0.000000 0.707106
vn -0.707107 0.000000 0.707106
vn -0.707107 0.000000 0.707106
vn -0.707107 0.000000 0.707106
vn 0.707107 0.000000 0.707106
vn 0.707107 0.000000 0.707106
vn 0.707107 0.000000 0.707106
vn 0.707107 0.000000 0.707106
vn 0.000000 0.707107 0.707106
vn 0.000000 0.707107 0.707106
vn 0.000000 0.707107 0.707106
vn 0.000000 0.707107 0.707106
vn 0.000000 0.000000 1.000000
vn 0.000000 0.000000 1.000000
vn 0.000000 0.000000 1.000000
vn 0.000000 0.000000 1.000000
vn 0.000000 1.000000 0.000000
vn 0.000000 1.000000 0.000000
vn 0.000000 1.000000 0.000000
vn 0.000000 1.000000 0.000000
vn 0.000000 -1.000000 0.000000
vn 0.000000 -1.000000 0.000000
vn 0.000000 -1.000000 0.000000
vn 0.000000 -1.000000 0.000000
vn -1.000000 0.000000 0.000000
vn -1.000000 0.000000 0.000000
vn -1.000000 0.000000 0.000000
vn -1.000000 0.000000 0.000000
vn 1.000000 -0.000000 0.000000
vn 1.000000 -0.000000 0.000000
vn 1.000000 0.000000 0.000000
vn 1.000000 0.000000 0.000000
vn 0.000000 0.000000 1.000000
vn 0.000000 0.000000 1.000000
vn 0.000000 0.000000 1.000000
vn 0.000000 0.000000 1.000000
vn 0.000000 1.000000 0.000000
vn 0.000000 1.000000 0.000000
vn 0.000000 1.000000 0.000000
vn 0.000000 1.000000 0.000000
vn 0.000000 0.000000 -1.000000
vn 0.000000 0.000000 -1.000000
vn 0.000000 0.000000 -1.000000
vn 0.000000 0.000000 -1.000000
vn 0.000000 -1.000000 0.000000
vn 0.000000 -1.000000 0.000000
vn 0.000000 -1.000000 0.000000
vn 0.000000 -1.000000 0.000000
vn 1.000000 0.000000 0.000000
vn 1.000000 0.000000 0.000000
vn 1.000000 0.000000 0.000000
vn 1.000000 0.000000 0.000000
vn -1.000000 0.000000 0.000000
vn -1.000000 0.000000 0.000000
vn -1.000000 0.000000 0.000000
vn -1.000000 0.000000 0.000000
vn 0.000000 0.000000 1.000000
vn 0.000000 0.000000 1.000000
vn 0.000000 0.000000 1.000000
vn 0.000000 0.000000 1.000000
vn -0.000001 0.000000 1.000000
vn -0.000001 0.000000 1.000000
vn -0.000001 0.000000 1.000000
vn -0.000001 0.000000 1.000000
vn 0.000000 0.000000 1.000000
vn 0.000000 0.000000 1.000000
vn 0.000000 0.000000 1.000000
vn 0.000000 0.000000 1.000000
vn 0.000001 0.000000 1.000000
vn 0.000001 0.000000 1.000000
vn 0.000001 0.000000 1.000000
vn 0.000001 0.000000 1.000000
vn 0.000000 1.000000 0.000000
vn 0.000000 1.000000 0.000000
vn 0.000000 1.000000 0.000000
vn 0.000000 1.000000 0.000000
vn -1.000000 0.000000 0.000000
vn -1.000000 0.000000 0.000000
vn -1.000000 0.000000 0.000000
vn -1.000000 0.000000 0.000000
vn 0.000000 -1.000000 0.000000
vn 0.000000 -1.000000 0.000000
vn 0.000000 -1.000000 0.000000
vn 0.000000 -1.000000 0.000000
vn 1.000000 0.000000 0.000000
vn 1.000000 0.000000 0.000000
vn 1.000000 0.000000 0.000000
vn 1.000000 0.000000 0.000000
s off
g SM_SquareChest_Closed
f 1/21/1 2/1/2 4/22/3 3/2/4
f 6/6/5 5/8/6 7/10/7 8/12/8
f 9/4/9 10/5/10 12/11/11 11/28/12
f 10/5/13 9/4/14 13/31/15 14/7/16
f 11/28/17 12/11/18 16/9/19 15/33/20
f 14/7/21 13/31/22 15/33/23 16/9/24
s 1
f 4/3/25 2/29/26 13/31/27 9/4/28
s off
f 12/11/29 10/5/30 5/8/31 6/6/32
f 10/5/33 14/7/34 7/10/35 5/8/36
f 14/7/37 16/9/38 8/12/39 7/10/40
f 16/9/41 12/11/42 6/6/43 8/12/44
f 17/14/45 18/13/46 20/16/47 19/18/48
f 18/13/49 17/14/50 21/17/51 22/15/52
f 19/18/53 20/16/54 24/30/55 23/19/56
f 22/15/57 21/17/58 23/19/59 24/30/60
f 17/14/61 19/18/62 23/19/63 21/17/64
f 22/15/65 24/20/66 2/1/67 1/21/68
f 3/2/69 4/22/70 20/23/71 18/24/72
f 3/25/73 18/13/74 22/26/75 1/27/76
s 1
f 20/32/77 4/3/25 9/4/28 11/28/78
f 2/29/26 24/30/79 15/33/80 13/31/27
f 24/30/79 20/32/77 11/28/78 15/33/80
s off
f 37/34/81 38/35/82 39/36/83 40/37/84
f 27/38/85 28/39/86 30/40/87 29/41/88
f 29/41/89 30/40/90 32/42/91 31/43/92
f 31/43/93 32/42/94 26/44/95 25/45/96
f 26/46/97 32/47/98 30/48/99 28/39/100
f 31/49/101 25/50/102 27/38/103 29/51/104
f 25/50/105 26/46/106 34/52/107 33/53/108
f 26/46/109 28/39/110 35/54/111 34/52/112
f 28/39/113 27/38/114 36/55/115 35/54/116
f 27/38/117 25/50/118 33/53/119 36/55/120
f 33/53/121 34/52/122 38/35/123 37/34/124
f 34/52/125 35/54/126 39/36/127 38/35/128
f 35/54/129 36/55/130 40/37/131 39/36/132
f 36/55/133 33/53/134 37/34/135 40/37/136
